<svg width="16" height="16" viewBox="0 0 41 36" fill="none" xmlns="http://www.w3.org/2000/svg">
<path fill-rule="evenodd" clip-rule="evenodd" d="M24.5455 0H17.7781C13.0631 0 8.54113 1.86015 5.20709 5.17123C1.87305 8.48232 0 12.9731 0 17.6557L0 35.4491H11.3852V32.4881H24.5455C28.8011 32.3651 32.8409 30.5997 35.8072 27.5668C38.7735 24.5338 40.4328 20.4722 40.4328 16.2441C40.4328 12.016 38.7735 7.95431 35.8072 4.92139C32.8409 1.88846 28.8011 0.123072 24.5455 0V0ZM23.1587 22.5448H11.3852V18.9503C11.3852 16.5615 12.3407 14.2706 14.0416 12.5814C15.7424 10.8923 18.0492 9.94338 20.4545 9.94338H23.228C24.0862 9.90353 24.9435 10.037 25.7482 10.3356C26.5529 10.6343 27.2882 11.092 27.9096 11.681C28.5311 12.27 29.0258 12.978 29.3638 13.7624C29.7018 14.5467 29.876 15.3909 29.876 16.2441C29.876 17.0972 29.7018 17.9415 29.3638 18.7258C29.0258 19.5101 28.5311 20.2182 27.9096 20.8072C27.2882 21.3962 26.5529 21.8539 25.7482 22.1525C24.9435 22.4512 24.0862 22.5846 23.228 22.5448H23.1587Z" fill="#32CA66"/>
</svg>
