<svg width="100" height="37" viewBox="0 0 162 37" fill="none" xmlns="http://www.w3.org/2000/svg">
<path fill-rule="evenodd" clip-rule="evenodd" d="M24.5455 0H17.7781C13.0631 0 8.54113 1.86015 5.20709 5.17123C1.87305 8.48232 0 12.9731 0 17.6557L0 35.4491H11.3852V32.4881H24.5455C28.8011 32.3651 32.8409 30.5997 35.8072 27.5668C38.7735 24.5338 40.4328 20.4722 40.4328 16.2441C40.4328 12.016 38.7735 7.95431 35.8072 4.92139C32.8409 1.88846 28.8011 0.123072 24.5455 0V0ZM23.1587 22.5448H11.3852V18.9503C11.3852 16.5615 12.3407 14.2706 14.0416 12.5814C15.7424 10.8923 18.0492 9.94338 20.4545 9.94338H23.228C24.0862 9.90353 24.9435 10.037 25.7482 10.3356C26.5529 10.6343 27.2882 11.092 27.9096 11.681C28.5311 12.27 29.0258 12.978 29.3638 13.7624C29.7018 14.5467 29.876 15.3909 29.876 16.2441C29.876 17.0972 29.7018 17.9415 29.3638 18.7258C29.0258 19.5101 28.5311 20.2182 27.9096 20.8072C27.2882 21.3962 26.5529 21.8539 25.7482 22.1525C24.9435 22.4512 24.0862 22.5846 23.228 22.5448H23.1587Z" fill="#7380ec"/>
<path d="M51.1572 16.5264L51.7258 21.7322L51.5871 20.9472C52.1313 19.8386 52.9065 18.8575 53.8614 18.0689C54.7256 17.3288 55.6865 16.7081 56.7181 16.2234C57.39 15.8702 58.1248 15.6503 58.8814 15.5761L58.5763 21.6358C57.3109 21.4434 56.0174 21.6915 54.9153 22.3382C53.9141 22.9447 53.099 23.8115 52.5578 24.8447C52.0179 25.8297 51.732 26.9321 51.7258 28.0536V35.4629H45.6518V16.5264H51.1572Z" fill="black"/>
<path d="M60.5316 25.7674C60.5076 23.9434 60.9872 22.1478 61.9184 20.5754C62.8397 19.0358 64.1746 17.7816 65.7735 16.9533C67.5326 16.0285 69.4966 15.5551 71.4869 15.5761C73.4655 15.5415 75.4194 16.016 77.1587 16.9533C78.7143 17.7821 79.9953 19.04 80.8475 20.5754C81.7222 22.1662 82.1666 23.9551 82.1371 25.7674C82.165 27.5927 81.7209 29.3946 80.8475 31.0008C79.9964 32.5439 78.7158 33.811 77.1587 34.6504C75.3941 35.5999 73.4101 36.0746 71.4037 36.0276C69.4851 36.0563 67.586 35.6414 65.8567 34.8156C64.2508 34.0433 62.9063 32.8229 61.9877 31.3038C60.9933 29.6287 60.489 27.7114 60.5316 25.7674V25.7674ZM66.6888 25.7674C66.677 26.6933 66.8861 27.6089 67.2989 28.4392C67.6837 29.198 68.2563 29.8472 68.963 30.3259C69.6611 30.786 70.4828 31.026 71.3205 31.0145C72.1984 31.0348 73.0625 30.7951 73.8028 30.3259C74.5079 29.857 75.0693 29.2042 75.4253 28.4392C75.8001 27.5952 75.9936 26.6829 75.9936 25.7605C75.9936 24.8381 75.8001 23.9258 75.4253 23.0819C75.0604 22.33 74.5004 21.6882 73.8028 21.2227C73.0625 20.7535 72.1984 20.5138 71.3205 20.5341C70.4828 20.5226 69.6611 20.7626 68.963 21.2227C68.2633 21.6976 67.6919 22.3361 67.2989 23.0819C66.8764 23.9284 66.667 24.8641 66.6888 25.8087V25.7674Z" fill="black"/>
<path d="M88.0724 8.26318H94.188V16.5264H98.8059V21.2502H94.188V35.4767H88.0724V21.1813H85.1048V16.5264H88.0724V8.26318Z" fill="black"/>
<path d="M112.202 36C110.155 36.063 108.124 35.6181 106.294 34.7054C104.739 33.8873 103.461 32.6323 102.619 31.0972C101.752 29.4701 101.317 27.6496 101.357 25.8087C101.333 23.9865 101.844 22.1966 102.827 20.658C103.815 19.127 105.174 17.8673 106.78 16.9947C108.479 16.071 110.389 15.5968 112.327 15.6175C114.793 15.523 117.203 16.3651 119.066 17.9725C120.964 19.8134 122.173 22.2427 122.491 24.8585L107.653 29.5409L106.267 26.2494L117 22.6549L115.738 23.2196C115.502 22.4623 115.072 21.7789 114.49 21.2364C113.736 20.6215 112.772 20.3204 111.8 20.3963C110.964 20.3764 110.141 20.5964 109.428 21.0299C108.735 21.4482 108.188 22.0685 107.861 22.8064C107.463 23.6691 107.273 24.6123 107.307 25.5608C107.274 26.5906 107.498 27.6125 107.958 28.5356C108.389 29.2874 109.03 29.8995 109.803 30.2984C110.586 30.6834 111.453 30.8726 112.327 30.8493C112.99 30.8462 113.648 30.7249 114.268 30.4912C114.92 30.2585 115.543 29.9536 116.126 29.5823L118.9 34.0995C117.857 34.6836 116.749 35.1457 115.599 35.4767C114.498 35.8141 113.354 35.9904 112.202 36V36Z" fill="black"/>
<path d="M126.305 35.4767V1.28079H132.421V35.4767H126.305ZM130.576 30.2984L129.966 24.5279L141.448 16.0581L145.207 19.2808L130.576 30.2984ZM137.288 22.6136L145.928 35.4767H138.814L133.267 26.0704L137.288 22.6136Z" fill="black"/>
<path d="M151.267 8.26318H157.382V16.5264H162V21.2502H157.382V35.4767H151.267V21.1813H148.299V16.5264H151.267V8.26318Z" fill="black"/>
</svg>
